<?xml version="1.0" encoding="utf-8"?>
<svg xmlns="http://www.w3.org/2000/svg" id="master-artboard" viewBox="0 0 1359.0079345703125 938.299560546875" version="1.1" x="0px" y="0px" style="enable-background:new 0 0 1096 780;" width="1359.0079345703125px" height="938.299560546875px">
<path class="st2" d="M1020.2,433.1c-5.7-26.3-7.6-44.1-8.1-53.4c-0.5,9.3-2.4,27.1-8.1,53.4c-26.3,5.7-44.1,7.6-53.4,8.1&#10;&#9;c9.3,0.5,27.1,2.4,53.4,8.1c5.7,26.3,7.6,44.1,8.1,53.4c0.5-9.3,2.4-27.1,8.1-53.4c26.3-5.7,44.1-7.6,53.4-8.1&#10;&#9;C1064.4,440.8,1046.5,438.9,1020.2,433.1z M1016.8,445.9l-4.6,39.7l-4.6-39.7l-39.7-4.6l39.7-4.6l4.6-39.7l4.6,39.7l39.7,4.6&#10;&#9;L1016.8,445.9z" style="fill: rgb(0, 255, 0);" transform="matrix(1, 0, 0, 1, 122.32479095458984, 100.65203094482422)"/>
</svg>
