<?xml version="1.0" encoding="UTF-8" standalone="no"?>
<svg
   id="master-artboard"
   viewBox="0 0 200 200"
   version="1.1"
   x="0px"
   y="0px"
   width="200"
   height="200"
   sodipodi:docname="star200200.svg"
   inkscape:version="1.4.4 (dcaf3e7d9e, 2026-05-05)"
   xmlns:inkscape="http://www.inkscape.org/namespaces/inkscape"
   xmlns:sodipodi="http://sodipodi.sourceforge.net/DTD/sodipodi-0.dtd"
   xmlns="http://www.w3.org/2000/svg"
   xmlns:svg="http://www.w3.org/2000/svg">
  <defs
     id="defs1" />
  <sodipodi:namedview
     id="namedview1"
     pagecolor="#ffffff"
     bordercolor="#000000"
     borderopacity="0.25"
     inkscape:showpageshadow="2"
     inkscape:pageopacity="0.0"
     inkscape:pagecheckerboard="0"
     inkscape:deskcolor="#d1d1d1"
     inkscape:zoom="0.7311098"
     inkscape:cx="679.10456"
     inkscape:cy="470.51756"
     inkscape:window-width="1210"
     inkscape:window-height="933"
     inkscape:window-x="0"
     inkscape:window-y="0"
     inkscape:window-maximized="1"
     inkscape:current-layer="master-artboard" />
  <path
     class="st2"
     d="M 69.6,53.4 C 63.9,27.1 62,9.3 61.5,0 61,9.3 59.1,27.1 53.4,53.4 27.1,59.1 9.3,61 0,61.5 9.3,62 27.1,63.9 53.4,69.6 59.1,95.9 61,113.7 61.5,123 62,113.7 63.9,95.9 69.6,69.6 95.9,63.9 113.7,62 123,61.5 113.8,61.1 95.9,59.2 69.6,53.4 Z M 66.2,66.2 61.6,105.9 57,66.2 17.3,61.6 57,57 61.6,17.3 66.2,57 l 39.7,4.6 z"
     style="fill:#01ff01"
     stroke="blue" stroke-width="20"
     id="path1" />
</svg>
